solid OpenSCAD_Model
  facet normal 0.965926 0.258819 0
    outer loop
      vertex 90 0 150
      vertex 77.9423 45 0
      vertex 77.9423 45 150
    endloop
  endfacet
  facet normal 0.965926 0.258819 0
    outer loop
      vertex 77.9423 45 0
      vertex 90 0 150
      vertex 90 0 0
    endloop
  endfacet
  facet normal -0.965926 0.258819 0
    outer loop
      vertex -90 0 0
      vertex -77.9423 45 150
      vertex -77.9423 45 0
    endloop
  endfacet
  facet normal -0.965926 0.258819 0
    outer loop
      vertex -77.9423 45 150
      vertex -90 0 0
      vertex -90 0 150
    endloop
  endfacet
  facet normal 0.258819 0.965926 -0
    outer loop
      vertex 45 77.9423 0
      vertex 0 90 150
      vertex 45 77.9423 150
    endloop
  endfacet
  facet normal 0.258819 0.965926 0
    outer loop
      vertex 0 90 150
      vertex 45 77.9423 0
      vertex 0 90 0
    endloop
  endfacet
  facet normal 0.707107 0.707107 0
    outer loop
      vertex 77.9423 45 150
      vertex 45 77.9423 0
      vertex 45 77.9423 150
    endloop
  endfacet
  facet normal 0.707107 0.707107 0
    outer loop
      vertex 45 77.9423 0
      vertex 77.9423 45 150
      vertex 77.9423 45 0
    endloop
  endfacet
  facet normal -0.258819 0.965926 0
    outer loop
      vertex 0 90 0
      vertex -45 77.9423 150
      vertex 0 90 150
    endloop
  endfacet
  facet normal -0.258819 0.965926 0
    outer loop
      vertex -45 77.9423 150
      vertex 0 90 0
      vertex -45 77.9423 0
    endloop
  endfacet
  facet normal 0 0 -1
    outer loop
      vertex 14.1831 -3.01472 0
      vertex 90 0 0
      vertex 77.9423 -45 0
    endloop
  endfacet
  facet normal 0 0 -1
    outer loop
      vertex 9.70239 -10.7756 0
      vertex 77.9423 -45 0
      vertex 45 -77.9423 0
    endloop
  endfacet
  facet normal -0 0 -1
    outer loop
      vertex 90 0 0
      vertex 14.1831 -3.01472 0
      vertex 14.5 0 0
    endloop
  endfacet
  facet normal 0 0 -1
    outer loop
      vertex 90 0 0
      vertex 14.1831 3.01472 0
      vertex 77.9423 45 0
    endloop
  endfacet
  facet normal 0 0 -1
    outer loop
      vertex 14.1831 3.01472 0
      vertex 90 0 0
      vertex 14.5 0 0
    endloop
  endfacet
  facet normal 0 0 -1
    outer loop
      vertex 77.9423 -45 0
      vertex 13.2464 -5.89768 0
      vertex 14.1831 -3.01472 0
    endloop
  endfacet
  facet normal 0 0 -1
    outer loop
      vertex 77.9423 -45 0
      vertex 11.7307 -8.52289 0
      vertex 13.2464 -5.89768 0
    endloop
  endfacet
  facet normal 0 0 -1
    outer loop
      vertex 77.9423 -45 0
      vertex 9.70239 -10.7756 0
      vertex 11.7307 -8.52289 0
    endloop
  endfacet
  facet normal 0 0 -1
    outer loop
      vertex 45 -77.9423 0
      vertex 7.25 -12.5574 0
      vertex 9.70239 -10.7756 0
    endloop
  endfacet
  facet normal 0 0 -1
    outer loop
      vertex 45 -77.9423 0
      vertex 4.48075 -13.7903 0
      vertex 7.25 -12.5574 0
    endloop
  endfacet
  facet normal 0 0 -1
    outer loop
      vertex 0 -90 0
      vertex 4.48075 -13.7903 0
      vertex 45 -77.9423 0
    endloop
  endfacet
  facet normal 0 0 -1
    outer loop
      vertex 4.48075 -13.7903 0
      vertex 0 -90 0
      vertex 1.51566 -14.4206 0
    endloop
  endfacet
  facet normal 0 0 -1
    outer loop
      vertex 0 -90 0
      vertex -1.51566 -14.4206 0
      vertex 1.51566 -14.4206 0
    endloop
  endfacet
  facet normal 0 0 -1
    outer loop
      vertex 0 -90 0
      vertex -4.48075 -13.7903 0
      vertex -1.51566 -14.4206 0
    endloop
  endfacet
  facet normal 0 0 -1
    outer loop
      vertex -45 -77.9423 0
      vertex -4.48075 -13.7903 0
      vertex 0 -90 0
    endloop
  endfacet
  facet normal -0 0 -1
    outer loop
      vertex -4.48075 -13.7903 0
      vertex -45 -77.9423 0
      vertex -7.25 -12.5574 0
    endloop
  endfacet
  facet normal -0 0 -1
    outer loop
      vertex -7.25 -12.5574 0
      vertex -45 -77.9423 0
      vertex -9.70239 -10.7756 0
    endloop
  endfacet
  facet normal 0 0 -1
    outer loop
      vertex -77.9423 -45 0
      vertex -9.70239 -10.7756 0
      vertex -45 -77.9423 0
    endloop
  endfacet
  facet normal -0 0 -1
    outer loop
      vertex -9.70239 -10.7756 0
      vertex -77.9423 -45 0
      vertex -11.7307 -8.52289 0
    endloop
  endfacet
  facet normal -0 0 -1
    outer loop
      vertex -13.2464 -5.89768 0
      vertex -77.9423 -45 0
      vertex -14.1831 -3.01472 0
    endloop
  endfacet
  facet normal -0 0 -1
    outer loop
      vertex -11.7307 -8.52289 0
      vertex -77.9423 -45 0
      vertex -13.2464 -5.89768 0
    endloop
  endfacet
  facet normal 0 0 -1
    outer loop
      vertex 13.2464 5.89768 0
      vertex 77.9423 45 0
      vertex 14.1831 3.01472 0
    endloop
  endfacet
  facet normal 0 0 -1
    outer loop
      vertex 11.7307 8.52289 0
      vertex 77.9423 45 0
      vertex 13.2464 5.89768 0
    endloop
  endfacet
  facet normal 0 0 -1
    outer loop
      vertex 9.70239 10.7756 0
      vertex 77.9423 45 0
      vertex 11.7307 8.52289 0
    endloop
  endfacet
  facet normal -0 0 -1
    outer loop
      vertex 77.9423 45 0
      vertex 9.70239 10.7756 0
      vertex 45 77.9423 0
    endloop
  endfacet
  facet normal 0 0 -1
    outer loop
      vertex 7.25 12.5574 0
      vertex 45 77.9423 0
      vertex 9.70239 10.7756 0
    endloop
  endfacet
  facet normal 0 0 -1
    outer loop
      vertex 4.48075 13.7903 0
      vertex 45 77.9423 0
      vertex 7.25 12.5574 0
    endloop
  endfacet
  facet normal 0 0 -1
    outer loop
      vertex 0 90 0
      vertex 4.48075 13.7903 0
      vertex 1.51566 14.4206 0
    endloop
  endfacet
  facet normal 0 0 -1
    outer loop
      vertex 4.48075 13.7903 0
      vertex 0 90 0
      vertex 45 77.9423 0
    endloop
  endfacet
  facet normal 0 0 -1
    outer loop
      vertex -1.51566 14.4206 0
      vertex 0 90 0
      vertex 1.51566 14.4206 0
    endloop
  endfacet
  facet normal 0 0 -1
    outer loop
      vertex -4.48075 13.7903 0
      vertex 0 90 0
      vertex -1.51566 14.4206 0
    endloop
  endfacet
  facet normal 0 0 -1
    outer loop
      vertex -45 77.9423 0
      vertex -4.48075 13.7903 0
      vertex -7.25 12.5574 0
    endloop
  endfacet
  facet normal 0 0 -1
    outer loop
      vertex -45 77.9423 0
      vertex -7.25 12.5574 0
      vertex -9.70239 10.7756 0
    endloop
  endfacet
  facet normal 0 0 -1
    outer loop
      vertex -77.9423 45 0
      vertex -9.70239 10.7756 0
      vertex -11.7307 8.52289 0
    endloop
  endfacet
  facet normal 0 0 -1
    outer loop
      vertex -77.9423 45 0
      vertex -11.7307 8.52289 0
      vertex -13.2464 5.89768 0
    endloop
  endfacet
  facet normal 0 0 -1
    outer loop
      vertex -77.9423 45 0
      vertex -13.2464 5.89768 0
      vertex -14.1831 3.01472 0
    endloop
  endfacet
  facet normal 0 0 -1
    outer loop
      vertex -90 0 0
      vertex -14.1831 -3.01472 0
      vertex -77.9423 -45 0
    endloop
  endfacet
  facet normal 0 0 -1
    outer loop
      vertex -14.1831 -3.01472 0
      vertex -90 0 0
      vertex -14.5 0 0
    endloop
  endfacet
  facet normal 0 0 -1
    outer loop
      vertex -4.48075 13.7903 0
      vertex -45 77.9423 0
      vertex 0 90 0
    endloop
  endfacet
  facet normal 0 0 -1
    outer loop
      vertex -14.5 0 0
      vertex -90 0 0
      vertex -14.1831 3.01472 0
    endloop
  endfacet
  facet normal 0 0 -1
    outer loop
      vertex -9.70239 10.7756 0
      vertex -77.9423 45 0
      vertex -45 77.9423 0
    endloop
  endfacet
  facet normal -0 0 -1
    outer loop
      vertex -14.1831 3.01472 0
      vertex -90 0 0
      vertex -77.9423 45 0
    endloop
  endfacet
  facet normal -0.707107 0.707107 0
    outer loop
      vertex -77.9423 45 0
      vertex -45 77.9423 150
      vertex -45 77.9423 0
    endloop
  endfacet
  facet normal -0.707107 0.707107 0
    outer loop
      vertex -45 77.9423 150
      vertex -77.9423 45 0
      vertex -77.9423 45 150
    endloop
  endfacet
  facet normal 0 0 1
    outer loop
      vertex 77.9423 45 150
      vertex 77.9423 -45 150
      vertex 90 0 150
    endloop
  endfacet
  facet normal 0 0 1
    outer loop
      vertex 45 77.9423 150
      vertex 77.9423 -45 150
      vertex 77.9423 45 150
    endloop
  endfacet
  facet normal 0 0 1
    outer loop
      vertex 45 77.9423 150
      vertex 45 -77.9423 150
      vertex 77.9423 -45 150
    endloop
  endfacet
  facet normal 0 0 1
    outer loop
      vertex 0 90 150
      vertex 45 -77.9423 150
      vertex 45 77.9423 150
    endloop
  endfacet
  facet normal 0 0 1
    outer loop
      vertex 0 90 150
      vertex 0 -90 150
      vertex 45 -77.9423 150
    endloop
  endfacet
  facet normal -0 0 1
    outer loop
      vertex -45 77.9423 150
      vertex 0 -90 150
      vertex 0 90 150
    endloop
  endfacet
  facet normal 0 0 1
    outer loop
      vertex -45 77.9423 150
      vertex -45 -77.9423 150
      vertex 0 -90 150
    endloop
  endfacet
  facet normal -0 0 1
    outer loop
      vertex -77.9423 45 150
      vertex -45 -77.9423 150
      vertex -45 77.9423 150
    endloop
  endfacet
  facet normal 0 0 1
    outer loop
      vertex -77.9423 45 150
      vertex -77.9423 -45 150
      vertex -45 -77.9423 150
    endloop
  endfacet
  facet normal 0 -0 1
    outer loop
      vertex -77.9423 -45 150
      vertex -77.9423 45 150
      vertex -90 0 150
    endloop
  endfacet
  facet normal 0.965926 -0.258819 0
    outer loop
      vertex 77.9423 -45 150
      vertex 90 0 0
      vertex 90 0 150
    endloop
  endfacet
  facet normal 0.965926 -0.258819 0
    outer loop
      vertex 90 0 0
      vertex 77.9423 -45 150
      vertex 77.9423 -45 0
    endloop
  endfacet
  facet normal -0.258819 -0.965926 0
    outer loop
      vertex -45 -77.9423 0
      vertex 0 -90 150
      vertex -45 -77.9423 150
    endloop
  endfacet
  facet normal -0.258819 -0.965926 -0
    outer loop
      vertex 0 -90 150
      vertex -45 -77.9423 0
      vertex 0 -90 0
    endloop
  endfacet
  facet normal -0.965926 -0.258819 0
    outer loop
      vertex -77.9423 -45 0
      vertex -90 0 150
      vertex -90 0 0
    endloop
  endfacet
  facet normal -0.965926 -0.258819 0
    outer loop
      vertex -90 0 150
      vertex -77.9423 -45 0
      vertex -77.9423 -45 150
    endloop
  endfacet
  facet normal 0.707107 -0.707107 0
    outer loop
      vertex 45 -77.9423 150
      vertex 77.9423 -45 0
      vertex 77.9423 -45 150
    endloop
  endfacet
  facet normal 0.707107 -0.707107 0
    outer loop
      vertex 77.9423 -45 0
      vertex 45 -77.9423 150
      vertex 45 -77.9423 0
    endloop
  endfacet
  facet normal 0.258819 -0.965926 0
    outer loop
      vertex 0 -90 0
      vertex 45 -77.9423 150
      vertex 0 -90 150
    endloop
  endfacet
  facet normal 0.258819 -0.965926 0
    outer loop
      vertex 45 -77.9423 150
      vertex 0 -90 0
      vertex 45 -77.9423 0
    endloop
  endfacet
  facet normal -0.707107 -0.707107 0
    outer loop
      vertex -45 -77.9423 0
      vertex -77.9423 -45 150
      vertex -77.9423 -45 0
    endloop
  endfacet
  facet normal -0.707107 -0.707107 0
    outer loop
      vertex -77.9423 -45 150
      vertex -45 -77.9423 0
      vertex -45 -77.9423 150
    endloop
  endfacet
  facet normal -0.994522 -0.104529 0
    outer loop
      vertex 14.5 0 0
      vertex 14.1831 3.01472 1.2
      vertex 14.1831 3.01472 0
    endloop
  endfacet
  facet normal -0.994522 -0.104529 0
    outer loop
      vertex 14.1831 3.01472 1.2
      vertex 14.5 0 0
      vertex 14.5 0 1.2
    endloop
  endfacet
  facet normal 0.994522 -0.104529 0
    outer loop
      vertex -14.5 0 1.2
      vertex -14.1831 3.01472 0
      vertex -14.1831 3.01472 1.2
    endloop
  endfacet
  facet normal 0.994522 -0.104529 0
    outer loop
      vertex -14.1831 3.01472 0
      vertex -14.5 0 1.2
      vertex -14.5 0 0
    endloop
  endfacet
  facet normal 0 -1 0
    outer loop
      vertex -1.51566 14.4206 0
      vertex 1.51566 14.4206 1.2
      vertex -1.51566 14.4206 1.2
    endloop
  endfacet
  facet normal 0 -1 -0
    outer loop
      vertex 1.51566 14.4206 1.2
      vertex -1.51566 14.4206 0
      vertex 1.51566 14.4206 0
    endloop
  endfacet
  facet normal 0 1 -0
    outer loop
      vertex 1.51566 -14.4206 0
      vertex -1.51566 -14.4206 1.2
      vertex 1.51566 -14.4206 1.2
    endloop
  endfacet
  facet normal 0 1 0
    outer loop
      vertex -1.51566 -14.4206 1.2
      vertex 1.51566 -14.4206 0
      vertex -1.51566 -14.4206 0
    endloop
  endfacet
  facet normal -0.587785 -0.809017 0
    outer loop
      vertex 7.25 12.5574 0
      vertex 9.70239 10.7756 1.2
      vertex 7.25 12.5574 1.2
    endloop
  endfacet
  facet normal -0.587785 -0.809017 -0
    outer loop
      vertex 9.70239 10.7756 1.2
      vertex 7.25 12.5574 0
      vertex 9.70239 10.7756 0
    endloop
  endfacet
  facet normal -0.406737 -0.913545 0
    outer loop
      vertex 4.48075 13.7903 0
      vertex 7.25 12.5574 1.2
      vertex 4.48075 13.7903 1.2
    endloop
  endfacet
  facet normal -0.406737 -0.913545 -0
    outer loop
      vertex 7.25 12.5574 1.2
      vertex 4.48075 13.7903 0
      vertex 7.25 12.5574 0
    endloop
  endfacet
  facet normal 0.587785 -0.809017 0
    outer loop
      vertex -9.70239 10.7756 0
      vertex -7.25 12.5574 1.2
      vertex -9.70239 10.7756 1.2
    endloop
  endfacet
  facet normal 0.587785 -0.809017 0
    outer loop
      vertex -7.25 12.5574 1.2
      vertex -9.70239 10.7756 0
      vertex -7.25 12.5574 0
    endloop
  endfacet
  facet normal 0.207911 -0.978148 0
    outer loop
      vertex -4.48075 13.7903 0
      vertex -1.51566 14.4206 1.2
      vertex -4.48075 13.7903 1.2
    endloop
  endfacet
  facet normal 0.207911 -0.978148 0
    outer loop
      vertex -1.51566 14.4206 1.2
      vertex -4.48075 13.7903 0
      vertex -1.51566 14.4206 0
    endloop
  endfacet
  facet normal -0.951057 0.309017 0
    outer loop
      vertex 13.2464 -5.89768 0
      vertex 14.1831 -3.01472 1.2
      vertex 14.1831 -3.01472 0
    endloop
  endfacet
  facet normal -0.951057 0.309017 0
    outer loop
      vertex 14.1831 -3.01472 1.2
      vertex 13.2464 -5.89768 0
      vertex 13.2464 -5.89768 1.2
    endloop
  endfacet
  facet normal -0.866025 -0.5 0
    outer loop
      vertex 13.2464 5.89768 0
      vertex 11.7307 8.52289 1.2
      vertex 11.7307 8.52289 0
    endloop
  endfacet
  facet normal -0.866025 -0.5 0
    outer loop
      vertex 11.7307 8.52289 1.2
      vertex 13.2464 5.89768 0
      vertex 13.2464 5.89768 1.2
    endloop
  endfacet
  facet normal -0.951057 -0.309017 0
    outer loop
      vertex 14.1831 3.01472 0
      vertex 13.2464 5.89768 1.2
      vertex 13.2464 5.89768 0
    endloop
  endfacet
  facet normal -0.951057 -0.309017 0
    outer loop
      vertex 13.2464 5.89768 1.2
      vertex 14.1831 3.01472 0
      vertex 14.1831 3.01472 1.2
    endloop
  endfacet
  facet normal -0.743145 -0.669131 0
    outer loop
      vertex 11.7307 8.52289 0
      vertex 9.70239 10.7756 1.2
      vertex 9.70239 10.7756 0
    endloop
  endfacet
  facet normal -0.743145 -0.669131 0
    outer loop
      vertex 9.70239 10.7756 1.2
      vertex 11.7307 8.52289 0
      vertex 11.7307 8.52289 1.2
    endloop
  endfacet
  facet normal -0.207911 -0.978148 0
    outer loop
      vertex 1.51566 14.4206 0
      vertex 4.48075 13.7903 1.2
      vertex 1.51566 14.4206 1.2
    endloop
  endfacet
  facet normal -0.207911 -0.978148 -0
    outer loop
      vertex 4.48075 13.7903 1.2
      vertex 1.51566 14.4206 0
      vertex 4.48075 13.7903 0
    endloop
  endfacet
  facet normal 0.866025 -0.5 0
    outer loop
      vertex -13.2464 5.89768 1.2
      vertex -11.7307 8.52289 0
      vertex -11.7307 8.52289 1.2
    endloop
  endfacet
  facet normal 0.866025 -0.5 0
    outer loop
      vertex -11.7307 8.52289 0
      vertex -13.2464 5.89768 1.2
      vertex -13.2464 5.89768 0
    endloop
  endfacet
  facet normal 0.743145 -0.669131 0
    outer loop
      vertex -11.7307 8.52289 1.2
      vertex -9.70239 10.7756 0
      vertex -9.70239 10.7756 1.2
    endloop
  endfacet
  facet normal 0.743145 -0.669131 0
    outer loop
      vertex -9.70239 10.7756 0
      vertex -11.7307 8.52289 1.2
      vertex -11.7307 8.52289 0
    endloop
  endfacet
  facet normal 0.951057 -0.309017 0
    outer loop
      vertex -14.1831 3.01472 1.2
      vertex -13.2464 5.89768 0
      vertex -13.2464 5.89768 1.2
    endloop
  endfacet
  facet normal 0.951057 -0.309017 0
    outer loop
      vertex -13.2464 5.89768 0
      vertex -14.1831 3.01472 1.2
      vertex -14.1831 3.01472 0
    endloop
  endfacet
  facet normal 0 0 -1
    outer loop
      vertex 14.1831 -3.01472 1.2
      vertex 14.1831 3.01472 1.2
      vertex 14.5 0 1.2
    endloop
  endfacet
  facet normal 0 0 -1
    outer loop
      vertex 13.2464 -5.89768 1.2
      vertex 14.1831 3.01472 1.2
      vertex 14.1831 -3.01472 1.2
    endloop
  endfacet
  facet normal 0 0 -1
    outer loop
      vertex 13.2464 -5.89768 1.2
      vertex 13.2464 5.89768 1.2
      vertex 14.1831 3.01472 1.2
    endloop
  endfacet
  facet normal 0 0 -1
    outer loop
      vertex 11.7307 -8.52289 1.2
      vertex 13.2464 5.89768 1.2
      vertex 13.2464 -5.89768 1.2
    endloop
  endfacet
  facet normal 0 0 -1
    outer loop
      vertex 11.7307 -8.52289 1.2
      vertex 11.7307 8.52289 1.2
      vertex 13.2464 5.89768 1.2
    endloop
  endfacet
  facet normal 0 0 -1
    outer loop
      vertex 9.70239 -10.7756 1.2
      vertex 11.7307 8.52289 1.2
      vertex 11.7307 -8.52289 1.2
    endloop
  endfacet
  facet normal 0 0 -1
    outer loop
      vertex 9.70239 -10.7756 1.2
      vertex 9.70239 10.7756 1.2
      vertex 11.7307 8.52289 1.2
    endloop
  endfacet
  facet normal 0 0 -1
    outer loop
      vertex 7.25 -12.5574 1.2
      vertex 9.70239 10.7756 1.2
      vertex 9.70239 -10.7756 1.2
    endloop
  endfacet
  facet normal 0 0 -1
    outer loop
      vertex 7.25 -12.5574 1.2
      vertex 7.25 12.5574 1.2
      vertex 9.70239 10.7756 1.2
    endloop
  endfacet
  facet normal 0 0 -1
    outer loop
      vertex 4.48075 -13.7903 1.2
      vertex 7.25 12.5574 1.2
      vertex 7.25 -12.5574 1.2
    endloop
  endfacet
  facet normal 0 0 -1
    outer loop
      vertex 4.48075 -13.7903 1.2
      vertex 4.48075 13.7903 1.2
      vertex 7.25 12.5574 1.2
    endloop
  endfacet
  facet normal 0 0 -1
    outer loop
      vertex 1.51566 -14.4206 1.2
      vertex 4.48075 13.7903 1.2
      vertex 4.48075 -13.7903 1.2
    endloop
  endfacet
  facet normal 0 0 -1
    outer loop
      vertex 1.51566 -14.4206 1.2
      vertex 1.51566 14.4206 1.2
      vertex 4.48075 13.7903 1.2
    endloop
  endfacet
  facet normal 0 0 -1
    outer loop
      vertex -1.51566 -14.4206 1.2
      vertex 1.51566 14.4206 1.2
      vertex 1.51566 -14.4206 1.2
    endloop
  endfacet
  facet normal 0 0 -1
    outer loop
      vertex -1.51566 -14.4206 1.2
      vertex -1.51566 14.4206 1.2
      vertex 1.51566 14.4206 1.2
    endloop
  endfacet
  facet normal 0 0 -1
    outer loop
      vertex -4.48075 -13.7903 1.2
      vertex -1.51566 14.4206 1.2
      vertex -1.51566 -14.4206 1.2
    endloop
  endfacet
  facet normal 0 0 -1
    outer loop
      vertex -4.48075 -13.7903 1.2
      vertex -4.48075 13.7903 1.2
      vertex -1.51566 14.4206 1.2
    endloop
  endfacet
  facet normal 0 0 -1
    outer loop
      vertex -4.48075 -13.7903 1.2
      vertex -7.25 12.5574 1.2
      vertex -4.48075 13.7903 1.2
    endloop
  endfacet
  facet normal 0 0 -1
    outer loop
      vertex -7.25 -12.5574 1.2
      vertex -7.25 12.5574 1.2
      vertex -4.48075 -13.7903 1.2
    endloop
  endfacet
  facet normal 0 0 -1
    outer loop
      vertex -9.70239 -10.7756 1.2
      vertex -7.25 12.5574 1.2
      vertex -7.25 -12.5574 1.2
    endloop
  endfacet
  facet normal 0 0 -1
    outer loop
      vertex -9.70239 -10.7756 1.2
      vertex -9.70239 10.7756 1.2
      vertex -7.25 12.5574 1.2
    endloop
  endfacet
  facet normal 0 0 -1
    outer loop
      vertex -11.7307 -8.52289 1.2
      vertex -9.70239 10.7756 1.2
      vertex -9.70239 -10.7756 1.2
    endloop
  endfacet
  facet normal 0 0 -1
    outer loop
      vertex -11.7307 -8.52289 1.2
      vertex -11.7307 8.52289 1.2
      vertex -9.70239 10.7756 1.2
    endloop
  endfacet
  facet normal 0 0 -1
    outer loop
      vertex -13.2464 -5.89768 1.2
      vertex -11.7307 8.52289 1.2
      vertex -11.7307 -8.52289 1.2
    endloop
  endfacet
  facet normal 0 0 -1
    outer loop
      vertex -13.2464 -5.89768 1.2
      vertex -13.2464 5.89768 1.2
      vertex -11.7307 8.52289 1.2
    endloop
  endfacet
  facet normal 0 0 -1
    outer loop
      vertex -14.1831 -3.01472 1.2
      vertex -13.2464 5.89768 1.2
      vertex -13.2464 -5.89768 1.2
    endloop
  endfacet
  facet normal 0 0 -1
    outer loop
      vertex -14.1831 -3.01472 1.2
      vertex -14.1831 3.01472 1.2
      vertex -13.2464 5.89768 1.2
    endloop
  endfacet
  facet normal 0 -0 -1
    outer loop
      vertex -14.1831 3.01472 1.2
      vertex -14.1831 -3.01472 1.2
      vertex -14.5 0 1.2
    endloop
  endfacet
  facet normal 0.406737 -0.913545 0
    outer loop
      vertex -7.25 12.5574 0
      vertex -4.48075 13.7903 1.2
      vertex -7.25 12.5574 1.2
    endloop
  endfacet
  facet normal 0.406737 -0.913545 0
    outer loop
      vertex -4.48075 13.7903 1.2
      vertex -7.25 12.5574 0
      vertex -4.48075 13.7903 0
    endloop
  endfacet
  facet normal -0.994522 0.104529 0
    outer loop
      vertex 14.1831 -3.01472 0
      vertex 14.5 0 1.2
      vertex 14.5 0 0
    endloop
  endfacet
  facet normal -0.994522 0.104529 0
    outer loop
      vertex 14.5 0 1.2
      vertex 14.1831 -3.01472 0
      vertex 14.1831 -3.01472 1.2
    endloop
  endfacet
  facet normal -0.207911 0.978148 0
    outer loop
      vertex 4.48075 -13.7903 0
      vertex 1.51566 -14.4206 1.2
      vertex 4.48075 -13.7903 1.2
    endloop
  endfacet
  facet normal -0.207911 0.978148 0
    outer loop
      vertex 1.51566 -14.4206 1.2
      vertex 4.48075 -13.7903 0
      vertex 1.51566 -14.4206 0
    endloop
  endfacet
  facet normal -0.866025 0.5 0
    outer loop
      vertex 11.7307 -8.52289 0
      vertex 13.2464 -5.89768 1.2
      vertex 13.2464 -5.89768 0
    endloop
  endfacet
  facet normal -0.866025 0.5 0
    outer loop
      vertex 13.2464 -5.89768 1.2
      vertex 11.7307 -8.52289 0
      vertex 11.7307 -8.52289 1.2
    endloop
  endfacet
  facet normal 0.587785 0.809017 -0
    outer loop
      vertex -7.25 -12.5574 0
      vertex -9.70239 -10.7756 1.2
      vertex -7.25 -12.5574 1.2
    endloop
  endfacet
  facet normal 0.587785 0.809017 0
    outer loop
      vertex -9.70239 -10.7756 1.2
      vertex -7.25 -12.5574 0
      vertex -9.70239 -10.7756 0
    endloop
  endfacet
  facet normal 0.866025 0.5 0
    outer loop
      vertex -11.7307 -8.52289 1.2
      vertex -13.2464 -5.89768 0
      vertex -13.2464 -5.89768 1.2
    endloop
  endfacet
  facet normal 0.866025 0.5 0
    outer loop
      vertex -13.2464 -5.89768 0
      vertex -11.7307 -8.52289 1.2
      vertex -11.7307 -8.52289 0
    endloop
  endfacet
  facet normal 0.743145 0.669131 0
    outer loop
      vertex -9.70239 -10.7756 1.2
      vertex -11.7307 -8.52289 0
      vertex -11.7307 -8.52289 1.2
    endloop
  endfacet
  facet normal 0.743145 0.669131 0
    outer loop
      vertex -11.7307 -8.52289 0
      vertex -9.70239 -10.7756 1.2
      vertex -9.70239 -10.7756 0
    endloop
  endfacet
  facet normal -0.587785 0.809017 0
    outer loop
      vertex 9.70239 -10.7756 0
      vertex 7.25 -12.5574 1.2
      vertex 9.70239 -10.7756 1.2
    endloop
  endfacet
  facet normal -0.587785 0.809017 0
    outer loop
      vertex 7.25 -12.5574 1.2
      vertex 9.70239 -10.7756 0
      vertex 7.25 -12.5574 0
    endloop
  endfacet
  facet normal -0.406737 0.913545 0
    outer loop
      vertex 7.25 -12.5574 0
      vertex 4.48075 -13.7903 1.2
      vertex 7.25 -12.5574 1.2
    endloop
  endfacet
  facet normal -0.406737 0.913545 0
    outer loop
      vertex 4.48075 -13.7903 1.2
      vertex 7.25 -12.5574 0
      vertex 4.48075 -13.7903 0
    endloop
  endfacet
  facet normal 0.207911 0.978148 -0
    outer loop
      vertex -1.51566 -14.4206 0
      vertex -4.48075 -13.7903 1.2
      vertex -1.51566 -14.4206 1.2
    endloop
  endfacet
  facet normal 0.207911 0.978148 0
    outer loop
      vertex -4.48075 -13.7903 1.2
      vertex -1.51566 -14.4206 0
      vertex -4.48075 -13.7903 0
    endloop
  endfacet
  facet normal 0.951057 0.309017 0
    outer loop
      vertex -13.2464 -5.89768 1.2
      vertex -14.1831 -3.01472 0
      vertex -14.1831 -3.01472 1.2
    endloop
  endfacet
  facet normal 0.951057 0.309017 0
    outer loop
      vertex -14.1831 -3.01472 0
      vertex -13.2464 -5.89768 1.2
      vertex -13.2464 -5.89768 0
    endloop
  endfacet
  facet normal 0.994522 0.104529 0
    outer loop
      vertex -14.1831 -3.01472 1.2
      vertex -14.5 0 0
      vertex -14.5 0 1.2
    endloop
  endfacet
  facet normal 0.994522 0.104529 0
    outer loop
      vertex -14.5 0 0
      vertex -14.1831 -3.01472 1.2
      vertex -14.1831 -3.01472 0
    endloop
  endfacet
  facet normal -0.743145 0.669131 0
    outer loop
      vertex 9.70239 -10.7756 0
      vertex 11.7307 -8.52289 1.2
      vertex 11.7307 -8.52289 0
    endloop
  endfacet
  facet normal -0.743145 0.669131 0
    outer loop
      vertex 11.7307 -8.52289 1.2
      vertex 9.70239 -10.7756 0
      vertex 9.70239 -10.7756 1.2
    endloop
  endfacet
  facet normal 0.406737 0.913545 -0
    outer loop
      vertex -4.48075 -13.7903 0
      vertex -7.25 -12.5574 1.2
      vertex -4.48075 -13.7903 1.2
    endloop
  endfacet
  facet normal 0.406737 0.913545 0
    outer loop
      vertex -7.25 -12.5574 1.2
      vertex -4.48075 -13.7903 0
      vertex -7.25 -12.5574 0
    endloop
  endfacet
endsolid OpenSCAD_Model
